<svg xmlns="http://www.w3.org/2000/svg" xmlns:xlink="http://www.w3.org/1999/xlink" width="500" zoomAndPan="magnify" viewBox="0 0 375 374.999991" height="500" preserveAspectRatio="xMidYMid meet" version="1.0"><defs><g/></defs><path fill="#f5efe6" d="M 149.160156 220.816406 L 189.785156 182.941406 C 184.484375 170.929688 189.6875 152.929688 203.527344 139.09375 L 229.164062 113.460938 L 222.425781 106.722656 L 179.621094 146.628906 C 184.917969 158.644531 179.710938 176.640625 165.875 190.472656 C 156.300781 200.046875 144.726562 205.476562 134.519531 206.175781 Z M 149.160156 220.816406 " fill-opacity="1" fill-rule="nonzero"/><path fill="#a17c5e" d="M 205.851562 155.09375 C 207.578125 156.820312 210.378906 156.820312 212.105469 155.09375 L 241.453125 125.746094 L 235.195312 119.492188 L 205.851562 148.839844 C 204.121094 150.5625 204.121094 153.363281 205.851562 155.09375 Z M 205.851562 155.09375 " fill-opacity="1" fill-rule="nonzero"/><path fill="#a17c5e" d="M 228.371094 171.359375 C 226.644531 173.089844 226.644531 175.890625 228.371094 177.617188 C 230.097656 179.34375 232.902344 179.34375 234.628906 177.617188 L 263.9375 148.308594 C 263.707031 148.0625 263.503906 147.800781 263.261719 147.558594 L 257.71875 142.015625 Z M 228.371094 171.359375 " fill-opacity="1" fill-rule="nonzero"/><path fill="#a17c5e" d="M 125.5 150.097656 C 139.335938 136.261719 157.328125 131.054688 169.34375 136.351562 L 209.25 93.546875 L 205.820312 90.117188 C 195.8125 80.109375 179.589844 80.109375 169.582031 90.117188 L 112.136719 147.558594 C 102.988281 156.710938 102.234375 171.042969 109.816406 181.085938 C 110.621094 170.96875 116.042969 159.558594 125.5 150.097656 Z M 125.5 150.097656 " fill-opacity="1" fill-rule="nonzero"/><path fill="#a17c5e" d="M 223.511719 166.5 L 252.855469 137.152344 L 246.601562 130.898438 L 217.253906 160.242188 C 215.527344 161.96875 215.527344 164.769531 217.253906 166.5 C 218.980469 168.226562 221.78125 168.226562 223.511719 166.5 Z M 223.511719 166.5 " fill-opacity="1" fill-rule="nonzero"/><path fill="#a17c5e" d="M 243.90625 179.46875 C 230.066406 193.304688 212.070312 198.507812 200.054688 193.210938 L 162.179688 233.835938 L 169.582031 241.238281 C 179.589844 251.246094 195.816406 251.246094 205.820312 241.238281 L 263.261719 183.796875 C 271.0625 176 272.753906 164.4375 268.398438 154.972656 Z M 243.90625 179.46875 " fill-opacity="1" fill-rule="nonzero"/><g fill="#f5efe6" fill-opacity="1"><g transform="translate(126.684356, 277.331173)"><g><path d="M 18.140625 -6.375 C 18.179688 -4.28125 18.054688 -2.15625 17.765625 0 L 1.03125 0 L 0.828125 -1.03125 C 1.453125 -1.425781 2.359375 -1.863281 3.546875 -2.34375 L 3.546875 -19.140625 L 1.1875 -19.421875 L 1.21875 -21.0625 L 17.921875 -21.0625 C 18.023438 -19.3125 17.851562 -17.28125 17.40625 -14.96875 L 14.71875 -14.96875 L 14.171875 -18.140625 L 8.421875 -18.5625 L 8.421875 -11.6875 L 15.296875 -12.21875 L 15.296875 -8.984375 L 8.421875 -9.28125 L 8.421875 -2.65625 L 14.40625 -3.078125 L 15.453125 -6.5625 Z M 18.140625 -6.375 "/></g></g></g><g fill="#f5efe6" fill-opacity="1"><g transform="translate(146.423502, 277.331173)"><g><path d="M 9.28125 0.453125 L 8.28125 0.515625 C 6.019531 0.515625 4.148438 -0.238281 2.671875 -1.75 C 1.191406 -3.269531 0.453125 -5.210938 0.453125 -7.578125 C 0.453125 -10.015625 1.191406 -12.003906 2.671875 -13.546875 C 4.148438 -15.097656 6.019531 -15.875 8.28125 -15.875 C 9.582031 -15.875 10.757812 -15.570312 11.8125 -14.96875 C 12.875 -14.375 13.648438 -13.523438 14.140625 -12.421875 L 10.65625 -10.015625 C 9.394531 -11.722656 8.070312 -12.800781 6.6875 -13.25 C 5.550781 -12.03125 4.984375 -10.410156 4.984375 -8.390625 C 4.984375 -6.703125 5.394531 -5.328125 6.21875 -4.265625 C 7.039062 -3.210938 8.203125 -2.6875 9.703125 -2.6875 C 10.785156 -2.6875 11.9375 -2.972656 13.15625 -3.546875 L 13.828125 -1.953125 Z M 9.28125 0.453125 "/></g></g></g><g fill="#f5efe6" fill-opacity="1"><g transform="translate(160.723981, 277.331173)"><g><path d="M 0.453125 -7.703125 C 0.453125 -10.117188 1.191406 -12.082031 2.671875 -13.59375 C 4.148438 -15.113281 6 -15.875 8.21875 -15.875 C 10.4375 -15.875 12.265625 -15.097656 13.703125 -13.546875 C 15.148438 -12.003906 15.875 -10.003906 15.875 -7.546875 C 15.875 -5.078125 15.160156 -3.09375 13.734375 -1.59375 C 12.316406 -0.101562 10.507812 0.640625 8.3125 0.640625 C 6.070312 0.640625 4.203125 -0.144531 2.703125 -1.71875 C 1.203125 -3.300781 0.453125 -5.296875 0.453125 -7.703125 Z M 9.625 -2.140625 C 10.632812 -2.847656 11.140625 -4.523438 11.140625 -7.171875 C 11.140625 -8.921875 10.875 -10.351562 10.34375 -11.46875 C 9.820312 -12.59375 9.03125 -13.15625 7.96875 -13.15625 C 7.332031 -13.15625 6.789062 -13.003906 6.34375 -12.703125 C 5.570312 -11.679688 5.1875 -10.039062 5.1875 -7.78125 C 5.1875 -6.070312 5.460938 -4.675781 6.015625 -3.59375 C 6.566406 -2.519531 7.410156 -1.984375 8.546875 -1.984375 C 8.929688 -1.984375 9.289062 -2.035156 9.625 -2.140625 Z M 9.625 -2.140625 "/></g></g></g><g fill="#a17c5e" fill-opacity="1"><g transform="translate(177.203884, 277.331173)"><g><path d="M 18.234375 -2.296875 L 11.6875 0.515625 C 9.0625 0.597656 6.898438 0.128906 5.203125 -0.890625 C 3.503906 -1.921875 2.269531 -3.257812 1.5 -4.90625 C 0.738281 -6.5625 0.359375 -8.347656 0.359375 -10.265625 C 0.359375 -12.234375 0.757812 -14.09375 1.5625 -15.84375 C 2.375 -17.59375 3.585938 -19.003906 5.203125 -20.078125 C 6.828125 -21.160156 8.796875 -21.703125 11.109375 -21.703125 C 13.578125 -21.703125 15.773438 -21.03125 17.703125 -19.6875 C 17.742188 -19 17.695312 -18.078125 17.5625 -16.921875 C 17.4375 -15.773438 17.242188 -14.773438 16.984375 -13.921875 L 14.046875 -13.921875 L 13.28125 -17.921875 C 11.8125 -18.554688 10.203125 -18.875 8.453125 -18.875 C 7.398438 -18.09375 6.613281 -16.984375 6.09375 -15.546875 C 5.570312 -14.117188 5.3125 -12.617188 5.3125 -11.046875 C 5.3125 -8.503906 5.929688 -6.484375 7.171875 -4.984375 C 8.410156 -3.492188 10.082031 -2.78125 12.1875 -2.84375 L 17.46875 -4.578125 Z M 18.234375 -2.296875 "/></g></g></g><g fill="#a17c5e" fill-opacity="1"><g transform="translate(195.823305, 277.331173)"><g><path d="M 0.453125 -7.703125 C 0.453125 -10.117188 1.191406 -12.082031 2.671875 -13.59375 C 4.148438 -15.113281 6 -15.875 8.21875 -15.875 C 10.4375 -15.875 12.265625 -15.097656 13.703125 -13.546875 C 15.148438 -12.003906 15.875 -10.003906 15.875 -7.546875 C 15.875 -5.078125 15.160156 -3.09375 13.734375 -1.59375 C 12.316406 -0.101562 10.507812 0.640625 8.3125 0.640625 C 6.070312 0.640625 4.203125 -0.144531 2.703125 -1.71875 C 1.203125 -3.300781 0.453125 -5.296875 0.453125 -7.703125 Z M 9.625 -2.140625 C 10.632812 -2.847656 11.140625 -4.523438 11.140625 -7.171875 C 11.140625 -8.921875 10.875 -10.351562 10.34375 -11.46875 C 9.820312 -12.59375 9.03125 -13.15625 7.96875 -13.15625 C 7.332031 -13.15625 6.789062 -13.003906 6.34375 -12.703125 C 5.570312 -11.679688 5.1875 -10.039062 5.1875 -7.78125 C 5.1875 -6.070312 5.460938 -4.675781 6.015625 -3.59375 C 6.566406 -2.519531 7.410156 -1.984375 8.546875 -1.984375 C 8.929688 -1.984375 9.289062 -2.035156 9.625 -2.140625 Z M 9.625 -2.140625 "/></g></g></g><g fill="#a17c5e" fill-opacity="1"><g transform="translate(212.29926, 277.331173)"><g><path d="M 0.453125 -7.703125 C 0.453125 -10.117188 1.191406 -12.082031 2.671875 -13.59375 C 4.148438 -15.113281 6 -15.875 8.21875 -15.875 C 10.4375 -15.875 12.265625 -15.097656 13.703125 -13.546875 C 15.148438 -12.003906 15.875 -10.003906 15.875 -7.546875 C 15.875 -5.078125 15.160156 -3.09375 13.734375 -1.59375 C 12.316406 -0.101562 10.507812 0.640625 8.3125 0.640625 C 6.070312 0.640625 4.203125 -0.144531 2.703125 -1.71875 C 1.203125 -3.300781 0.453125 -5.296875 0.453125 -7.703125 Z M 9.625 -2.140625 C 10.632812 -2.847656 11.140625 -4.523438 11.140625 -7.171875 C 11.140625 -8.921875 10.875 -10.351562 10.34375 -11.46875 C 9.820312 -12.59375 9.03125 -13.15625 7.96875 -13.15625 C 7.332031 -13.15625 6.789062 -13.003906 6.34375 -12.703125 C 5.570312 -11.679688 5.1875 -10.039062 5.1875 -7.78125 C 5.1875 -6.070312 5.460938 -4.675781 6.015625 -3.59375 C 6.566406 -2.519531 7.410156 -1.984375 8.546875 -1.984375 C 8.929688 -1.984375 9.289062 -2.035156 9.625 -2.140625 Z M 9.625 -2.140625 "/></g></g></g><g fill="#a17c5e" fill-opacity="1"><g transform="translate(228.775215, 277.331173)"><g><path d="M 18.75 -0.671875 L 13.5625 0.28125 C 13.050781 0.03125 12.445312 -0.628906 11.75 -1.703125 L 8.953125 -6.203125 L 7.546875 -6.109375 L 7.546875 -2.375 C 8.273438 -2.113281 8.863281 -1.84375 9.3125 -1.5625 L 9.1875 0 L 0.640625 0 L 0.546875 -1.09375 C 1.140625 -1.425781 1.925781 -1.765625 2.90625 -2.109375 L 2.90625 -20.640625 L 0.515625 -20.890625 L 0.28125 -22.4375 C 2.125 -23.132812 4.023438 -23.503906 5.984375 -23.546875 L 7.546875 -22.140625 L 7.546875 -7.78125 L 8.734375 -8.546875 L 12.3125 -13.03125 L 10.078125 -13.15625 L 9.859375 -14.6875 C 11.710938 -15.320312 13.8125 -15.695312 16.15625 -15.8125 L 17.4375 -13.828125 L 12.640625 -8.03125 L 15.78125 -3.453125 C 16.332031 -2.734375 17.035156 -2.375 17.890625 -2.375 L 18.46875 -2.40625 Z M 18.75 -0.671875 "/></g></g></g></svg>