<svg xmlns="http://www.w3.org/2000/svg" version="1.1" xmlns:xlink="http://www.w3.org/1999/xlink" xmlns:svgjs="http://svgjs.dev/svgjs" width="1500" height="1500" viewBox="0 0 1500 1500"><g transform="matrix(1,0,0,1,-0.323615160350073,-0.3236151603499593)"><svg viewBox="0 0 343 343" data-background-color="#e8d5cc" preserveAspectRatio="xMidYMid meet" height="1500" width="1500" xmlns="http://www.w3.org/2000/svg" xmlns:xlink="http://www.w3.org/1999/xlink"><g id="tight-bounds" transform="matrix(1,0,0,1,0.0740000000000407,0.07400000000001228)"><svg viewBox="0 0 342.85155851775386 342.85155851775386" height="342.85155851775386" width="342.85155851775386"><g><svg></svg></g><g><svg viewBox="0 0 342.85155851775386 342.85155851775386" height="342.85155851775386" width="342.85155851775386"><g><path d="M0 171.426c0-94.676 76.75-171.426 171.426-171.426 94.676 0 171.426 76.75 171.426 171.426 0 94.676-76.75 171.426-171.426 171.426-94.676 0-171.426-76.75-171.426-171.426zM171.426 339.527c92.84 0 168.101-75.262 168.101-168.101 0-92.84-75.262-168.101-168.101-168.102-92.84 0-168.101 75.262-168.102 168.102 0 92.84 75.262 168.101 168.102 168.101z" data-fill-palette-color="tertiary" fill="#bda18a" stroke="transparent"></path><ellipse rx="164.56874808852186" ry="164.56874808852186" cx="171.42577925887693" cy="171.42577925887693" fill="#bda18a" stroke="transparent" stroke-width="0" fill-opacity="1" data-fill-palette-color="tertiary"></ellipse></g><g transform="matrix(1,0,0,1,64.84655864529837,123.16932259276993)"><svg viewBox="0 0 213.1584412271571 96.51291333221401" height="96.51291333221401" width="213.1584412271571"><g><svg viewBox="0 0 213.1584412271571 96.51291333221401" height="96.51291333221401" width="213.1584412271571"><g><svg viewBox="0 0 213.1584412271571 96.51291333221401" height="96.51291333221401" width="213.1584412271571"><g transform="matrix(1,0,0,1,0,59.64885234536183)"><svg viewBox="0 0 213.1584412271571 36.86406098685218" height="36.86406098685218" width="213.1584412271571"><g id="textblocktransform"><svg viewBox="0 0 213.1584412271571 36.86406098685218" height="36.86406098685218" width="213.1584412271571" id="textblock"><g><svg viewBox="0 0 213.1584412271571 36.86406098685218" height="36.86406098685218" width="213.1584412271571"><g transform="matrix(1,0,0,1,0,0)"><svg width="213.1584412271571" viewBox="1.81 -38.57 226.28 39.13" height="36.86406098685218" data-palette-color="#d5cabc"><path d="M29.47-21.22L29.47-21.22 25.9-19.8Q25.05-22.49 23.05-23.93 21.04-25.37 18.24-25.37L18.24-25.37Q16.72-25.37 15.54-24.89 14.36-24.41 13.46-23.58 12.57-22.75 11.95-21.66 11.33-20.56 10.94-19.31 10.55-18.07 10.38-16.74 10.21-15.41 10.21-14.16L10.21-14.16Q10.21-12.82 10.35-11.45 10.5-10.08 10.85-8.83 11.21-7.57 11.79-6.48 12.38-5.4 13.27-4.59 14.16-3.78 15.39-3.32 16.63-2.86 18.24-2.86L18.24-2.86Q19.53-2.86 20.7-3.25 21.88-3.64 22.85-4.35 23.83-5.05 24.58-6.03 25.34-7.01 25.78-8.2L25.78-8.2 29.37-6.88Q28.56-4.96 27.23-3.55 25.9-2.15 24.22-1.23 22.53-0.32 20.61 0.12 18.68 0.56 16.7 0.56L16.7 0.56Q13.5 0.56 10.77-0.52 8.03-1.61 6.04-3.58 4.05-5.54 2.93-8.24 1.81-10.94 1.81-14.16L1.81-14.16Q1.81-17.41 2.92-20.12 4.03-22.83 6.01-24.78 7.98-26.73 10.72-27.81 13.45-28.88 16.7-28.88L16.7-28.88Q18.75-28.88 20.7-28.43 22.66-27.98 24.33-27.04 26-26.1 27.33-24.66 28.66-23.22 29.47-21.22ZM64.13-14.16L64.13-14.16Q64.13-11.96 63.55-10.03 62.96-8.11 61.92-6.47 60.89-4.83 59.42-3.53 57.96-2.22 56.21-1.32 54.47-0.42 52.48 0.07 50.49 0.56 48.39 0.56L48.39 0.56Q46.29 0.56 44.31 0.07 42.33-0.42 40.59-1.32 38.84-2.22 37.38-3.53 35.91-4.83 34.87-6.47 33.84-8.11 33.25-10.05 32.66-11.99 32.66-14.16L32.66-14.16Q32.66-16.33 33.25-18.27 33.84-20.21 34.87-21.85 35.91-23.49 37.38-24.79 38.84-26.1 40.59-27 42.33-27.91 44.31-28.39 46.29-28.88 48.39-28.88L48.39-28.88Q50.49-28.88 52.48-28.39 54.47-27.91 56.21-27 57.96-26.1 59.42-24.79 60.89-23.49 61.92-21.85 62.96-20.21 63.55-18.27 64.13-16.33 64.13-14.16ZM55.73-14.16L55.73-14.16Q55.73-15.33 55.6-16.64 55.47-17.94 55.15-19.2 54.83-20.46 54.28-21.62 53.73-22.78 52.93-23.65 52.12-24.51 51-25.04 49.88-25.56 48.39-25.56L48.39-25.56Q46.97-25.56 45.87-25.02 44.77-24.49 43.96-23.6 43.14-22.71 42.59-21.53 42.04-20.36 41.7-19.1 41.35-17.85 41.21-16.56 41.06-15.28 41.06-14.16L41.06-14.16Q41.06-13.04 41.21-11.76 41.35-10.47 41.7-9.2 42.04-7.93 42.59-6.77 43.14-5.62 43.96-4.72 44.77-3.83 45.87-3.3 46.97-2.76 48.39-2.76L48.39-2.76Q49.85-2.76 50.97-3.28 52.1-3.81 52.91-4.69 53.73-5.57 54.27-6.71 54.81-7.86 55.14-9.13 55.47-10.4 55.6-11.69 55.73-12.99 55.73-14.16ZM99.12-14.16L99.12-14.16Q99.12-11.96 98.53-10.03 97.94-8.11 96.91-6.47 95.87-4.83 94.4-3.53 92.94-2.22 91.19-1.32 89.45-0.42 87.46 0.07 85.47 0.56 83.37 0.56L83.37 0.56Q81.27 0.56 79.29 0.07 77.31-0.42 75.57-1.32 73.82-2.22 72.36-3.53 70.89-4.83 69.86-6.47 68.82-8.11 68.23-10.05 67.65-11.99 67.65-14.16L67.65-14.16Q67.65-16.33 68.23-18.27 68.82-20.21 69.86-21.85 70.89-23.49 72.36-24.79 73.82-26.1 75.57-27 77.31-27.91 79.29-28.39 81.27-28.88 83.37-28.88L83.37-28.88Q85.47-28.88 87.46-28.39 89.45-27.91 91.19-27 92.94-26.1 94.4-24.79 95.87-23.49 96.91-21.85 97.94-20.21 98.53-18.27 99.12-16.33 99.12-14.16ZM90.72-14.16L90.72-14.16Q90.72-15.33 90.58-16.64 90.45-17.94 90.13-19.2 89.81-20.46 89.27-21.62 88.72-22.78 87.91-23.65 87.1-24.51 85.98-25.04 84.86-25.56 83.37-25.56L83.37-25.56Q81.95-25.56 80.85-25.02 79.76-24.49 78.94-23.6 78.12-22.71 77.57-21.53 77.02-20.36 76.68-19.1 76.34-17.85 76.19-16.56 76.04-15.28 76.04-14.16L76.04-14.16Q76.04-13.04 76.19-11.76 76.34-10.47 76.68-9.2 77.02-7.93 77.57-6.77 78.12-5.62 78.94-4.72 79.76-3.83 80.85-3.3 81.95-2.76 83.37-2.76L83.37-2.76Q84.83-2.76 85.96-3.28 87.08-3.81 87.9-4.69 88.72-5.57 89.25-6.71 89.79-7.86 90.12-9.13 90.45-10.4 90.58-11.69 90.72-12.99 90.72-14.16ZM112.57-9.47L112.57 0 104.31 0 104.31-38.57 112.57-38.57 112.57-13.26Q114.59-14.72 116.56-16.48 118.52-18.24 120.31-20.18 122.09-22.12 123.61-24.15 125.14-26.17 126.29-28.2L126.29-28.2 131.9-28.2Q130.19-25.32 127.85-22.45 125.51-19.58 122.75-16.97L122.75-16.97 132 0 122.89 0 116.33-11.77Q114.49-10.52 112.57-9.47L112.57-9.47ZM141.91-13.38L141.91-13.38Q143.42-13.04 144.94-12.84 146.45-12.65 147.99-12.65L147.99-12.65Q149.6-12.65 150.98-12.95 152.36-13.26 153.37-13.98 154.38-14.7 154.97-15.89 155.56-17.09 155.56-18.87L155.56-18.87Q155.56-20.31 155.17-21.51 154.78-22.71 154.01-23.56 153.24-24.41 152.11-24.89 150.99-25.37 149.5-25.37L149.5-25.37Q148.11-25.37 147-24.85 145.89-24.34 145.05-23.47 144.2-22.61 143.61-21.46 143.01-20.31 142.62-19.07 142.23-17.82 142.06-16.55 141.88-15.28 141.88-14.16L141.88-14.16Q141.88-13.96 141.88-13.77 141.88-13.57 141.91-13.38ZM162.25-18.95L162.25-18.95Q162.25-17.21 161.68-15.86 161.12-14.5 160.16-13.48 159.19-12.45 157.92-11.74 156.66-11.04 155.21-10.58 153.77-10.13 152.25-9.94 150.72-9.74 149.28-9.74L149.28-9.74Q147.45-9.74 145.67-10 143.89-10.25 142.15-10.82L142.15-10.82Q142.42-9.2 143.01-7.75 143.59-6.3 144.57-5.21 145.55-4.13 146.97-3.49 148.4-2.86 150.36-2.86L150.36-2.86Q151.65-2.86 152.82-3.25 153.99-3.64 154.97-4.35 155.95-5.05 156.69-6.03 157.44-7.01 157.9-8.2L157.9-8.2 161.46-6.88Q160.66-4.96 159.26-3.55 157.85-2.15 156.08-1.23 154.31-0.32 152.32 0.12 150.33 0.56 148.38 0.56L148.38 0.56Q145.16 0.56 142.42-0.52 139.69-1.61 137.71-3.56 135.73-5.52 134.61-8.23 133.49-10.94 133.49-14.16L133.49-14.16Q133.49-17.38 134.61-20.09 135.73-22.8 137.71-24.76 139.69-26.71 142.42-27.8 145.16-28.88 148.38-28.88L148.38-28.88Q149.94-28.88 151.58-28.66 153.21-28.44 154.75-27.97 156.29-27.49 157.66-26.73 159.02-25.98 160.04-24.87 161.05-23.75 161.65-22.29 162.25-20.83 162.25-18.95ZM193.42-21.22L193.42-21.22 189.86-19.8Q189-22.49 187-23.93 185-25.37 182.19-25.37L182.19-25.37Q180.68-25.37 179.49-24.89 178.31-24.41 177.42-23.58 176.53-22.75 175.9-21.66 175.28-20.56 174.89-19.31 174.5-18.07 174.33-16.74 174.16-15.41 174.16-14.16L174.16-14.16Q174.16-12.82 174.3-11.45 174.45-10.08 174.8-8.83 175.16-7.57 175.74-6.48 176.33-5.4 177.22-4.59 178.11-3.78 179.35-3.32 180.58-2.86 182.19-2.86L182.19-2.86Q183.48-2.86 184.66-3.25 185.83-3.64 186.8-4.35 187.78-5.05 188.54-6.03 189.29-7.01 189.73-8.2L189.73-8.2 193.32-6.88Q192.52-4.96 191.19-3.55 189.86-2.15 188.17-1.23 186.49-0.32 184.56 0.12 182.63 0.56 180.65 0.56L180.65 0.56Q177.45 0.56 174.72-0.52 171.98-1.61 169.99-3.58 168.01-5.54 166.88-8.24 165.76-10.94 165.76-14.16L165.76-14.16Q165.76-17.41 166.87-20.12 167.98-22.83 169.96-24.78 171.94-26.73 174.67-27.81 177.4-28.88 180.65-28.88L180.65-28.88Q182.7-28.88 184.66-28.43 186.61-27.98 188.28-27.04 189.95-26.1 191.28-24.66 192.61-23.22 193.42-21.22ZM228.09-14.16L228.09-14.16Q228.09-11.96 227.5-10.03 226.91-8.11 225.88-6.47 224.84-4.83 223.37-3.53 221.91-2.22 220.16-1.32 218.42-0.42 216.43 0.07 214.44 0.56 212.34 0.56L212.34 0.56Q210.24 0.56 208.26 0.07 206.28-0.42 204.54-1.32 202.79-2.22 201.33-3.53 199.86-4.83 198.83-6.47 197.79-8.11 197.2-10.05 196.62-11.99 196.62-14.16L196.62-14.16Q196.62-16.33 197.2-18.27 197.79-20.21 198.83-21.85 199.86-23.49 201.33-24.79 202.79-26.1 204.54-27 206.28-27.91 208.26-28.39 210.24-28.88 212.34-28.88L212.34-28.88Q214.44-28.88 216.43-28.39 218.42-27.91 220.16-27 221.91-26.1 223.37-24.79 224.84-23.49 225.88-21.85 226.91-20.21 227.5-18.27 228.09-16.33 228.09-14.16ZM219.69-14.16L219.69-14.16Q219.69-15.33 219.55-16.64 219.42-17.94 219.1-19.2 218.78-20.46 218.23-21.62 217.69-22.78 216.88-23.65 216.07-24.51 214.95-25.04 213.83-25.56 212.34-25.56L212.34-25.56Q210.92-25.56 209.82-25.02 208.73-24.49 207.91-23.6 207.09-22.71 206.54-21.53 205.99-20.36 205.65-19.1 205.31-17.85 205.16-16.56 205.01-15.28 205.01-14.16L205.01-14.16Q205.01-13.04 205.16-11.76 205.31-10.47 205.65-9.2 205.99-7.93 206.54-6.77 207.09-5.62 207.91-4.72 208.73-3.83 209.82-3.3 210.92-2.76 212.34-2.76L212.34-2.76Q213.8-2.76 214.93-3.28 216.05-3.81 216.87-4.69 217.69-5.57 218.22-6.71 218.76-7.86 219.09-9.13 219.42-10.4 219.55-11.69 219.69-12.99 219.69-14.16Z" opacity="1" transform="matrix(1,0,0,1,0,0)" fill="#d5cabc" class="wordmark-text-0" data-fill-palette-color="quaternary" id="text-0"></path></svg></g></svg></g></svg></g></svg></g><g transform="matrix(1,0,0,1,62.39820936317243,0)"><svg viewBox="0 0 88.36202250081226 50.94613228382972" height="50.94613228382972" width="88.36202250081226"><g><svg xmlns="http://www.w3.org/2000/svg" data-name="Layer 1" viewBox="15.912371522892256 117.6 480.0876284771077 276.79999999999995" x="0" y="0" height="50.94613228382972" width="88.36202250081226" class="icon-icon-0" data-fill-palette-color="quaternary" id="icon-0"><path d="M70.849 247.662V232.305H23.679a7.679 7.679 0 1 0 0 15.357Z" fill="#d5cabc" data-fill-palette-color="quaternary"></path><rect x="82.849" y="232.305" width="115.141" height="15.357" fill="#d5cabc" data-fill-palette-color="quaternary"></rect><path d="M471.564 380.4V232.305H209.989V380.4a14.016 14.016 0 0 0 14 14H457.564A14.015 14.015 0 0 0 471.564 380.4Zm-230.19-3.885a6 6 0 0 1-12 0V356.526a6 6 0 0 1 12 0Zm0-56.391a6 6 0 0 1-12 0V251.28a6 6 0 0 1 12 0Z" fill="#d5cabc" data-fill-palette-color="quaternary"></path><path d="M322.124 129.6H359.43a6 6 0 0 0 0-12H322.124a6 6 0 1 0 0 12Z" fill="#d5cabc" data-fill-palette-color="quaternary"></path><path d="M490 195.434H458.708a43.8 43.8 0 0 0-43.319-37.742H266.166a43.931 43.931 0 0 0-43.315 37.742h-31.3a6 6 0 0 0 0 12H490a6 6 0 0 0 0-12Z" fill="#d5cabc" data-fill-palette-color="quaternary"></path></svg></g></svg></g><g></g></svg></g></svg></g></svg></g></svg></g><defs></defs></svg><rect width="342.85155851775386" height="342.85155851775386" fill="none" stroke="none" visibility="hidden"></rect></g></svg></g></svg>